<?xml version="1.0" encoding="UTF-8"?>
<svg id="_レイヤー_1" xmlns="http://www.w3.org/2000/svg" version="1.1" viewBox="0 0 300 300">
  <!-- Generator: Adobe Illustrator 29.0.1, SVG Export Plug-In . SVG Version: 2.1.0 Build 192)  -->
  <defs>
    <style>
      .st0 {
        fill: #00ff4d;
      }
    </style>
  </defs>
  <circle id="circle" class="st0" cx="150" cy="150" r="150"/>
  <g id="logo_x5F_group">
    <path id="logo" d="M108.6021805,201.7387848c.7265167,4.6806183.5135574,8.5298767-1.0081558,12.993515-1.9815674,5.8125153-2.7605743,6.867691-8.0872879,9.7944183-10.502861,5.7707367-24.1043777,9.0353699-35.7752571,11.4594421-3.5568123.7387695-11.2738838,2.0319977-14.4020157.5620728-3.8220482-1.7960052-10.3948212-10.0978851-12.3874397-13.9290314-2.4950638-4.7971802-5.8042202-16.0319672-3.9330215-21.0664825,2.0928154-5.6307983,6.5220146-7.3199768,10.7846298-10.4713135,1.5605202-1.1536865,3.0067444-2.6250153,4.6455421-3.7892303,2.3923302-1.6995087,4.9988136-3.0476074,7.3624229-4.7836456.0829811-3.70047.2737617-6.8978577.940464-10.5308228.9199142-5.0127411,4.1318016-18.6470032,7.1512527-22.2017365,1.8560753-2.1851196,6.2721825-4.6228943,9.0108299-5.4969788,5.3674927-1.7131195,15.1479797-3.3609772,20.6808472-2.9324799,3.6938324.286087,7.373291,1.4491425,11.0917664,1.3008728.9421539-1.2706146,1.2688293-2.7918396,2.3930664-4.0148315.8207321-.8928223,2.7292328-2.1676941,3.7866821-2.9611359,24.5939026-18.4536514,54.830368-24.265007,81.306839-38.8042603,9.5118256-5.2233124,20.3545074-12.3101959,31.3243866-13.5485764,2.6974792-.3045197,5.5093842-.0996933,8.0879211-.3468475,4.5776215-.4387665,8.9904175-2.2071533,13.7506561-1.5963211,12.5953827,1.6162567,16.920517,10.4379044,22.0549469,20.4565582.5785522,1.1288834,1.7097473,2.1584625,2.2236938,3.1745605,2.3376465,4.6215744,4.9578857,23.5996399,4.2889099,28.7181549-.519104,3.9719849-4.5722961,6.778244-7.6247864,8.9073792-8.7310181,6.0899658-20.4819794,12.3089447-29.9076538,17.664444-12.6075745,7.1633911-25.4931335,14.001236-38.3445435,20.698822-11.5207367,6.0040894-24.2153625,9.9941101-35.4418335,15.8415527-2.4553986,1.2789307-3.7998047,3.882843-6.9066772,3.8847198-.9425201.0005646-2.1299286-.6508026-2.993927-.5685425-2.0718384.1972656-3.3488464,1.0930023-6.1321716.9235077-1.5589294-.0949402-3.196106-.9125366-4.3073273-.916275-4.045517-.0136414-10.5401459,2.9226074-15.2329865,3.277359-6.3765411.4820251-12.182663-.7377625-18.3997726-1.6988678ZM244.2310028,95.4641876c-5.1372681-2.11866-9.7285614-3.1569748-15.3448792-2.6985245-5.4788666.4472275-20.0487061,8.039093-25.4855652,10.9526367-10.8657379,5.8228073-20.9379883,11.0534058-32.3929291,15.8539581-12.1930695,5.1098862-24.2445526,8.5714035-35.9795227,14.9664841-3.0222473,1.6470032-5.920639,3.5270996-8.8761444,5.2876282,4.452774,2.3289185,9.0710602,4.2527313,13.378418,6.8583679,1.4115906.8539124,3.8079376,3.044281,4.9316406,3.5225372.7006989.2982178.8458099.1889801,1.5146637.0249786,1.7237854-.4226532,5.2612152-2.9380798,7.2690277-3.8863373,4.1347656-1.9527588,8.608902-3.1109467,12.7054901-4.8388367,22.8141174-9.6226807,44.6360321-21.8540649,64.8145142-36.0653229,4.0859833-2.8776703,9.1786499-5.8228378,12.9067688-9.0235138.3491364-.2997437.7037964-.3349762.5585175-.9540558ZM255.847641,106.1126099c-.3870239-.5319824-1.6568146-2.5688248-2.1867981-2.4259644l-24.3038177,17.5533676c-19.4155273,11.8653946-39.1130219,22.7391434-60.1309052,31.6393814-3.6076813,1.52771-7.5993042,2.5181122-11.2569733,4.2630005-.869339.4147186-6.5892792,3.5018921-6.7858276,3.8385162-1.0220947,1.7504272,2.8434906,12.1826477,3.4730225,14.7760315.8548889,3.521759,1.6608276,7.1586914,1.5185242,10.7963257,11.9702454-5.0754089,24.192276-9.702652,35.7766876-15.671936,21.0211792-10.8319244,41.9941864-22.341507,62.2375946-34.5935516,1.4666748-.8876953,6.7888184-3.9333954,7.5819092-4.901825.5565186-.6795349.3884888-1.8145447.3374634-2.6915283-.4332275-7.4461136-1.8380127-16.5023956-6.2608643-22.5818329l-.0000153.0000153ZM67.7782364,179.133194c4.919342-.7007294,9.7894974-2.0041809,14.7232056-2.6517334,4.5812073-.6012878,7.5812988-.9188538,11.9281006,1.1336975,3.9590225,1.8694458,6.6063461,7.8961334,9.4450073,11.1358337,4.9009018.422287,9.6623077,2.4100189,14.6444244,2.1538391l8.139946-1.643219,2.8713684-16.7056732-.5812225-.7821045c-15.3856735-3.671524-30.5233536-8.5040588-45.9193268-12.1118622-3.7137909-.8702698-6.9640427-1.9606018-10.6362762-.3736877l-.5073776.5048065c-.3373184,2.504715-5.1704025,18.285141-4.1078491,19.3401031ZM85.2514572,188.6799927c-5.7913666.3284607-17.2617874,3.24646-22.9459267,5.0559387-3.2611656,1.038147-7.7156754,1.5348358-9.5077133,5.0000916-1.5387039,2.9753723-2.2322884,5.5944824-3.0573769,8.7514191-.2409668.9219971-1.1300812,2.1273499-1.153347,2.8399506-.0653992,2.0030823,2.1332779,6.075119,3.4973412,7.6085205,7.1852875,8.07724,21.1287079,5.8364716,30.5407486,3.5422668,10.6235809-2.5895233,14.3116684-11.3265381,11.7730942-21.5639648-.4012756-1.6182404-3.6692581-8.5310974-4.700592-9.8072205-1.5861588-1.9626465-2.1011658-1.5599976-4.446228-1.427002Z"/>
  </g>
</svg>