<?xml version="1.0" encoding="UTF-8"?>
<svg id="_レイヤー_1" data-name="レイヤー_1" xmlns="http://www.w3.org/2000/svg" version="1.1" viewBox="0 0 300 300">
  <!-- Generator: Adobe Illustrator 29.0.1, SVG Export Plug-In . SVG Version: 2.1.0 Build 192)  -->
  <defs>
    <style>
      .st0 {
        fill: #00ff4d;
      }
    </style>
  </defs>
  <circle id="circle" class="st0" cx="150" cy="150" r="150"/>
  <g id="logo_x5F_group">
    <path id="logo" d="M108.6021839,201.7387881c.7265132,4.6806181.5135584,8.5298728-1.0081542,12.9935073-1.9815657,5.8125201-2.7605731,6.8676922-8.0872849,9.7944244-10.5028597,5.7707378-24.104375,9.0353648-35.7752555,11.4594483-3.5568122.7387626-11.2738848,2.0320022-14.402016.5620731-3.8220502-1.7960062-10.3948225-10.097892-12.387441-13.9290368-2.4950643-4.7971814-5.8042201-16.0319634-3.9330229-21.0664855,2.0928154-5.6307937,6.5220152-7.3199733,10.7846278-10.4713178,1.5605216-1.1536918,3.006746-2.6250222,4.6455438-3.7892247,2.3923298-1.699512,4.9988133-3.0476037,7.362422-4.7836447.0829818-3.7004678.2737607-6.8978619.9404639-10.5308213.9199151-5.0127474,4.1317997-18.6470051,7.1512516-22.201743,1.8560762-2.1851199,6.2721849-4.6228868,9.0108303-5.4969716,5.3674909-1.7131252,15.1479793-3.3609842,20.6808461-2.9324747,3.6938327.28608,7.3732932,1.4491493,11.0917631,1.3008677.9421555-1.2706123,1.2688312-2.7918371,2.3930661-4.0148252.8207321-.8928255,2.7292348-2.1676909,3.7866836-2.9611312,24.5938965-18.4536491,54.8303671-24.2650063,81.3068383-38.8042657,9.5118242-5.2233123,20.3545024-12.3101938,31.3243899-13.5485788,2.6974841-.3045176,5.5093806-.099691,8.087924-.3468446,4.5776157-.4387648,8.990425-2.2071565,13.7506506-1.5963195,12.5953979,1.6162543,16.9205319,10.4379067,22.0549395,20.456554.5785377,1.1288869,1.7097337,2.1584648,2.2236882,3.1745636,2.3376441,4.6215709,4.9578737,23.5996461,4.2889153,28.7181609-.5191139,3.9719834-4.5723092,6.7782475-7.6247751,8.9073743-8.7310055,6.0899675-20.481979,12.3089426-29.9076576,17.664437-12.6075702,7.1633858-25.493127,14.0012373-38.3445513,20.6988285-11.5207358,6.0040956-24.2153584,9.9941173-35.4418343,15.8415584-2.4554009,1.2789242-3.7998071,3.882849-6.9066796,3.8847139-.9425181.0005658-2.1299222-.650801-2.9939222-.5685372-2.0718312.1972647-3.3488407,1.0929966-6.1321696.9235021-1.5589344-.0949334-3.1961005-.9125301-4.3073299-.9162785-4.0455241-.0136463-10.5401443,2.9226115-15.2329849,3.2773561-6.3765429.4820203-12.182663-.73776-18.3997649-1.6988689ZM244.2310064,95.4641889c-5.1372684-2.1186569-9.7285586-3.1569742-15.344886-2.6985272-5.4788723.4472269-20.0487045,8.0390946-25.4855642,10.9526355-10.8657396,5.8228055-20.9379859,11.053406-32.3929204,15.8539557-12.1930725,5.1098896-24.2445498,8.5714015-35.9795223,14.9664797-3.0222426,1.6469982-5.920642,3.5271044-8.876142,5.2876213,4.4527789,2.3289116,9.0710549,4.2527299,13.3784147,6.8583651,1.4115933.8539099,3.8079418,3.0442808,4.9316373,3.5225367.7007001.2982249.8458025.1889839,1.5146613.0249849,1.7237883-.4226594,5.2612134-2.938086,7.2690283-3.8863325,4.1347622-1.9527566,8.6089059-3.110953,12.7054851-4.8388335,22.8141175-9.6226796,44.6360356-21.8540639,64.8145129-36.0653189,4.0859816-2.8776664,9.1786434-5.822837,12.9067742-9.0235173.3491395-.2997437.7038028-.3349753.5585212-.9540497ZM255.8476449,106.1126075c-.3870241-.5319842-1.6568152-2.5688272-2.1867965-2.4259636l-24.3038105,17.5533667c-19.4155213,11.8653978-39.1130245,22.7391466-60.1308996,31.6393821-3.6076836,1.5277107-7.5993,2.5181062-11.256973,4.2630011-.8693433.4147207-6.5892722,3.5018859-6.7858323,3.8385139-1.0220871,1.7504227,2.8434883,12.1826439,3.4730168,14.7760348.8548824,3.5217535,1.6608203,7.1586918,1.5185195,10.7963324,11.9702529-5.0754074,24.1922719-9.702646,35.7766875-15.671934,21.021173-10.8319177,41.9941801-22.3415044,62.2375977-34.5935452,1.4666811-.8876879,6.7888041-3.9334023,7.5819-4.9018299.556506-.6795343.3884759-1.8145379.3374526-2.6915231-.4332174-7.4461115-1.8380033-16.5023922-6.2608623-22.5818351ZM67.7782358,179.1331935c4.9193402-.700724,9.7895016-2.0041751,14.7232037-2.6517309,4.5812042-.6012899,7.5813021-.9188579,11.9281006,1.1336912,3.9590219,1.8694418,6.6063477,7.8961272,9.445007,11.1358282,4.9009039.422282,9.6623059,2.4100202,14.6444256,2.1538448l8.1399474-1.6432188,2.8713731-16.7056802-.5812276-.7821045c-15.3856741-3.6715218-30.5233549-8.5040527-45.9193248-12.1118649-3.7137909-.8702706-6.9640405-1.960607-10.6362731-.3736807l-.5073757.504806c-.3373219,2.504716-5.170399,18.2851354-4.1078563,19.3401096ZM85.2514579,188.6799906c-5.7913643.3284569-17.2617881,3.2464623-22.9459266,5.0559398-3.2611651,1.0381529-7.7156755,1.5348351-9.5077147,5.0000872-1.5387034,2.9753785-2.2322898,5.5944767-3.0573766,8.75142-.2409681.9219911-1.1300793,2.1273461-1.1533458,2.839957-.0653998,2.0030782,2.1332781,6.0751249,3.4973425,7.6085182,7.1852886,8.0772385,21.1287052,5.8364741,30.5407449,3.5422643,10.6235837-2.5895269,14.3116712-11.3265335,11.7730916-21.5639673-.4012744-1.6182355-3.6692603-8.5310959-4.7005894-9.8072157-1.5861596-1.9626417-2.1011649-1.5600034-4.4462259-1.4270034Z"/>
    <path id="e" d="M202.184069,199.9303957c.0743027.1340252.4753601.2064566.6460512.5432918.2461541.4857509,1.7167127,3.7870084,1.5898172,3.958442l-9.1094715,4.0577905.6805029,2.0189892,9.0988048-3.7087827,2.6795825,6.2066966c-.2111178.9115794-6.9605735,3.0863197-8.0784258,4.085436-.7147072.6387925.2696198,1.3617005.3728296,2.1634563l10.087385-4.3595907c.6455312,2.532455,2.3197115,4.4945402,3.3436221,6.9225468l-17.6448209,8.2340853-11.699602-24.7400853,16.7336501-7.9242327c.8260639.6211894.8598262,1.7478491,1.3000747,2.541957Z"/>
    <path id="k" d="M193.960038,230.7572293c.4084981.5479369-9.3932048,4.7814678-10.290576,4.9277489l-10.9625047-5.9422783,4.0191333,9.2242595-8.4045732,3.9314609-11.1108049-24.7639906,8.0674463-3.9133045c1.1040058,2.6325193,2.3735867,5.3606466,3.6853361,7.9531402.1804006.3565372-.1765704.6392662.7035311.4798819l2.3353887-11.5838634,9.4715491-4.6092426-3.5378219,15.5388052,16.023896,8.7573826Z"/>
    <path id="a" d="M147.3797651,252.9907425l-8.9231303,4.0757277c-.9884164-1.3825156-.1545866-2.925716-.1982437-4.1782105-.0699541-2.0069354-.5240393-4.4386066-.6382934-6.4499374-.3567227-6.2797519-.5738363-12.5698617-.9696084-18.8457418l8.6197927-4.2088957,21.3485252,20.0440773c.1259035.5589145-.6188779.8041573-.9817106,1.0068914-1.1661955.6516163-6.276821,2.9896437-7.3540731,3.1275905-1.7607704.2254743-2.4746509-2.3871366-3.9341346-2.3064989-.3700757.020447-6.3746938,2.7895467-6.7439189,3.0772072-1.3796941,1.0749092.018237,4.324993-.2252049,4.6577903ZM149.4243918,239.5205984c.1385334-.5104419-.1360205-.5589525-.3317617-.8434791-.8965521-1.3032146-3.0263383-2.8073444-4.0500188-4.2126318l.6729933,6.4095795,3.7087872-1.3534686Z"/>
    <path id="c" d="M128.1727647,234.4660367l-2.0540577,8.4096775c-3.5405441-1.0833169-8.080067.8239293-8.2273999,4.9092197-.2518681,6.9838752,9.0464941,9.4215421,11.4820701,2.5219987l7.8624481,3.5913122c-5.5604585,13.6593693-25.635513,13.0131787-28.8778595-2.1497377-2.4281613-11.3553583,9.2882215-19.7188458,19.8147989-17.2824704Z"/>
    <path id="d" d="M205.1081621,71.8327516l-11.1477187-24.9546379c7.8144658-2.7309031,16.1178763-9.4607225,24.7176149-4.9827632,3.987222,2.0761815,6.8819274,8.5257202,6.672327,12.920477-.4868518,10.2079745-12.2212611,14.1286186-20.2422232,17.0169241ZM209.3952616,48.9783651c-.7122651.1028975-4.0017351,1.1975418-3.9232549,2.0527617l4.8459269,9.9800429c3.9731707-1.835612,7.0822082-3.618437,5.1590979-8.4921134-.9864278-2.499872-3.3549154-3.9346268-6.0817698-3.5406912Z"/>
    <polygon id="n" points="189.2104749 49.5973587 200.6857618 74.5144434 192.1060041 78.133515 179.7937735 69.8178779 185.5261356 81.6219728 177.4331725 85.0004072 165.9573722 60.0379041 174.1638405 56.3931963 186.8723381 65.094165 181.1396023 52.9538582 189.2104749 49.5973587"/>
    <path id="u" d="M161.5669052,62.3950756l7.8714284,16.9313093c3.1526962,11.0166189-12.621198,20.2509018-21.0292279,13.2692551-3.2001084-2.6572249-7.023422-11.995513-8.8277261-16.1391782-.2252699-.5173423-1.5023527-3.2413376-1.2648335-3.5730993l8.0744501-3.2590295c.6987407,1.3174699,1.5149525,2.5723952,2.2003663,3.8951688,1.3075125,2.5233559,4.3663665,11.0362525,6.4434502,12.1106528,2.8522985,1.4753909,6.2280317-1.1823746,5.1061009-4.4316901l-6.970001-14.9291356,8.3959925-3.8742533Z"/>
    <path id="o" d="M125.0508457,79.0137327c19.5055117-2.472874,23.4240446,23.8158238,5.2931374,28.910474-12.019271,3.3773259-23.0906957-8.4229613-17.7590902-20.1208281,1.9308472-4.2363963,7.8921049-8.2097816,12.4659528-8.7896459ZM123.2254574,98.0411893c3.0479042,2.8496692,8.3843649,1.6019949,8.9615561-2.7789486.6240448-4.7365682-3.0302376-8.7693164-7.8246968-7.1545626-4.299068,1.447908-4.0519788,7.2079904-1.1368592,9.9335113Z"/>
    <path id="p" d="M103.8772537,119.7464994l-8.4405178,3.2370088-11.4664293-24.8214147c6.6852453-1.9182796,15.0774019-9.4746548,22.0446303-4.6713454,1.4863216,1.0246919,2.6049699,2.8841784,3.1865033,4.5736925,2.5142561,7.3046041-3.3936794,10.8951645-9.0005597,13.7520944l3.6763733,7.9299644ZM95.4656408,100.8845199l1.8264379,3.9870291c1.8632615-1.0612665,4.7329155-1.9063765,2.6931741-4.3400689-1.3635079-1.6268527-2.9644396-.1177242-4.519612.3530398Z"/>
  </g>
</svg>